<svg width="95" height="20" viewBox="0 0 95 20" fill="none" xmlns="http://www.w3.org/2000/svg">
<g clip-path="url(#clip0_2505_14119)">
<path d="M10.926 19.9499H3.06649C1.37575 19.9499 0 18.5796 0 16.8956V15.5914C0 14.4263 0.650415 13.38 1.69585 12.8593L7.43721 10L1.69585 7.13906C0.650415 6.61841 0 5.57204 0 4.40695V3.10281C0 1.41877 1.37575 0.0484848 3.06649 0.0484848H10.926V3.15877H3.12268V4.37473L8.91513 7.25947C9.96395 7.78179 10.6161 8.83156 10.6161 10C10.6161 11.1685 9.96395 12.2183 8.91513 12.7406L3.12268 15.6253V16.8413H10.9277V19.9515L10.926 19.9499Z" fill="white"/>
<path d="M20.6602 19.9499H12.8007V16.8396H20.6057V15.6236L14.8132 12.7389C13.7644 12.2166 13.1123 11.1668 13.1123 9.99834C13.1123 8.82986 13.7644 7.78011 14.8132 7.25777L20.6057 4.37304V3.15707H12.8007V0.0484848H20.6602C22.3508 0.0484848 23.7267 1.41877 23.7267 3.10281V4.40695C23.7267 5.57204 23.0762 6.61841 22.0308 7.13906L16.2895 9.99834L22.0308 12.8576C23.0762 13.3783 23.7267 14.4246 23.7267 15.5897V16.8939C23.7267 18.5779 22.3508 19.9481 20.6602 19.9481V19.9499Z" fill="white"/>
<path d="M35.7267 16.2765V4.10392H43.1022V5.41151H37.2067V9.52451H42.7203V10.8321H37.2067V14.9689H43.1978V16.2765H35.7267Z" fill="white"/>
<path d="M45.2427 16.2765V7.14704H46.6032V8.57353H46.7225C46.9134 8.08615 47.2218 7.70774 47.6474 7.43829C48.0732 7.16488 48.5843 7.02819 49.181 7.02819C49.7857 7.02819 50.2889 7.16488 50.6907 7.43829C51.0966 7.70774 51.4129 8.08615 51.6397 8.57353H51.735C51.9697 8.10199 52.3218 7.72754 52.7914 7.45017C53.2607 7.16885 53.8237 7.02819 54.48 7.02819C55.2995 7.02819 55.9699 7.28376 56.491 7.7949C57.0122 8.3021 57.2727 9.0926 57.2727 10.1664V16.2765H55.8645V10.1664C55.8645 9.49281 55.6794 9.01136 55.3094 8.72212C54.9395 8.43287 54.5039 8.28822 54.0026 8.28822C53.3583 8.28822 52.859 8.48238 52.5049 8.8707C52.1508 9.25506 51.9738 9.74244 51.9738 10.3328V16.2765H50.5415V10.0238C50.5415 9.50469 50.3725 9.08665 50.0344 8.76967C49.6962 8.4487 49.2606 8.28822 48.7276 8.28822C48.3615 8.28822 48.0194 8.38531 47.7012 8.57947C47.3869 8.77363 47.1323 9.04306 46.9374 9.38779C46.7463 9.72856 46.6509 10.1228 46.6509 10.5706V16.2765H45.2427Z" fill="white"/>
<path d="M59.5116 16.2765V7.14704H60.872V8.57353H60.9914C61.1823 8.08615 61.4907 7.70774 61.9163 7.43829C62.3419 7.16488 62.8533 7.02819 63.4499 7.02819C64.0546 7.02819 64.5579 7.16488 64.9597 7.43829C65.3656 7.70774 65.6818 8.08615 65.9084 8.57353H66.004C66.2387 8.10199 66.5908 7.72754 67.0601 7.45017C67.5297 7.16885 68.0924 7.02819 68.749 7.02819C69.5685 7.02819 70.2388 7.28376 70.76 7.7949C71.281 8.3021 71.5417 9.0926 71.5417 10.1664V16.2765H70.1334V10.1664C70.1334 9.49281 69.9484 9.01136 69.5783 8.72212C69.2085 8.43287 68.7728 8.28822 68.2716 8.28822C67.627 8.28822 67.1279 8.48238 66.7738 8.8707C66.4197 9.25506 66.2426 9.74244 66.2426 10.3328V16.2765H64.8105V10.0238C64.8105 9.50469 64.6414 9.08665 64.3033 8.76967C63.9652 8.4487 63.5295 8.28822 62.9965 8.28822C62.6304 8.28822 62.2883 8.38531 61.9701 8.57947C61.6558 8.77363 61.4012 9.04306 61.2062 9.38779C61.0153 9.72856 60.9199 10.1228 60.9199 10.5706V16.2765H59.5116Z" fill="white"/>
<path d="M73.7804 16.2765V7.14704H75.1888V16.2765H73.7804ZM74.4966 5.62549C74.2219 5.62549 73.9853 5.53237 73.7865 5.34613C73.5914 5.1599 73.4941 4.93603 73.4941 4.67451C73.4941 4.41299 73.5914 4.18912 73.7865 4.00287C73.9853 3.81663 74.2219 3.72353 74.4966 3.72353C74.7711 3.72353 75.0058 3.81663 75.2006 4.00287C75.3997 4.18912 75.499 4.41299 75.499 4.67451C75.499 4.93603 75.3997 5.1599 75.2006 5.34613C75.0058 5.53237 74.7711 5.62549 74.4966 5.62549Z" fill="white"/>
<path d="M82.5143 16.2765H80.9628L85.4502 4.10392H86.9777L91.4652 16.2765H89.9137L86.2617 6.02965H86.1663L82.5143 16.2765ZM83.0871 11.5216H89.3409V12.8292H83.0871V11.5216Z" fill="white"/>
<path d="M94.5126 4.10392V16.2765H93.0327V4.10392H94.5126Z" fill="white"/>
</g>
<defs>
<clipPath id="clip0_2505_14119">
<rect width="94.5126" height="19.903" fill="white" transform="translate(0 0.0484848)"/>
</clipPath>
</defs>
</svg>
